<?xml version="1.0" encoding="UTF-8" standalone="no"?>
<svg
   xmlns:dc="http://purl.org/dc/elements/1.1/"
   xmlns:cc="http://creativecommons.org/ns#"
   xmlns:rdf="http://www.w3.org/1999/02/22-rdf-syntax-ns#"
   xmlns:svg="http://www.w3.org/2000/svg"
   xmlns="http://www.w3.org/2000/svg"
   xmlns:sodipodi="http://sodipodi.sourceforge.net/DTD/sodipodi-0.dtd"
   xmlns:inkscape="http://www.inkscape.org/namespaces/inkscape"
   width="51.434631"
   height="51.614716"
   viewBox="0 0 13.608746 13.656394"
   version="1.1"
   id="svg8"
   inkscape:version="1.0 (1.0+r73+1)"
   sodipodi:docname="icon_color-picker_01.svg">
  <defs
     id="defs2" />
  <sodipodi:namedview
     fit-margin-bottom="0"
     fit-margin-right="0"
     fit-margin-left="0"
     fit-margin-top="0"
     id="base"
     pagecolor="#ffffff"
     bordercolor="#666666"
     borderopacity="1.0"
     inkscape:pageopacity="0.0"
     inkscape:pageshadow="2"
     inkscape:zoom="5.333143"
     inkscape:cx="4.7454453"
     inkscape:cy="30.416735"
     inkscape:document-units="px"
     inkscape:current-layer="layer1"
     inkscape:document-rotation="0"
     showgrid="false"
     showborder="true"
     units="px"
     inkscape:window-width="1600"
     inkscape:window-height="845"
     inkscape:window-x="0"
     inkscape:window-y="27"
     inkscape:window-maximized="1" />
  <metadata
     id="metadata5">
    <rdf:RDF>
      <cc:Work
         rdf:about="">
        <dc:format>image/svg+xml</dc:format>
        <dc:type
           rdf:resource="http://purl.org/dc/dcmitype/StillImage" />
        <dc:title></dc:title>
      </cc:Work>
    </rdf:RDF>
  </metadata>
  <g
     transform="translate(-9.922694,-20.468269)"
     inkscape:label="Layer 1"
     inkscape:groupmode="layer"
     id="layer1"
     style="opacity:1">
    <path
       id="path833"
       style="opacity:1;fill:#1c2121;fill-opacity:1;stroke:#1c2121;stroke-width:0.79375;stroke-linecap:round;stroke-linejoin:round;stroke-miterlimit:4;stroke-dasharray:none;stroke-opacity:1"
       d="m 22.468428,21.560514 a 2.3249545,2.3249545 0 0 0 -1.658585,-0.69537 2.3249545,2.3249545 0 0 0 -2.324723,2.324722 2.3249545,2.3249545 0 0 0 2.324723,2.324723 2.3249545,2.3249545 0 0 0 2.324723,-2.324723 2.3249545,2.3249545 0 0 0 -0.666138,-1.629352 z m -5.34372,1.400242 c -0.08468,-0.08468 -0.362583,0.0571 -0.62302,0.317539 l -0.453836,0.453836 c -0.260437,0.260437 -0.401848,0.537981 -0.317174,0.622655 l 3.914246,3.914246 c 0.08468,0.08468 0.362218,-0.05674 0.622654,-0.317174 l 0.453836,-0.453836 c 0.260437,-0.260437 0.402214,-0.538346 0.31754,-0.62302 z" />
    <path
       id="rect859"
       style="opacity:1;fill:none;fill-opacity:1;stroke:#1c2121;stroke-width:0.819679;stroke-linecap:round;stroke-linejoin:round;stroke-miterlimit:4;stroke-dasharray:none;stroke-opacity:1"
       d="m 16.49433,25.210565 c -0.287027,0 -0.574331,0.110277 -0.794267,0.330212 l -4.497917,4.4974 c -0.43987,0.439872 -0.43987,1.148149 10e-7,1.588018 l 0.211356,0.211354 c -0.0167,0.01373 -0.03396,0.02618 -0.04963,0.04185 l -0.848528,0.848526 c -0.235092,0.235094 -0.248768,0.600274 -0.03049,0.818555 0.218279,0.218279 0.583462,0.204603 0.818554,-0.03049 l 0.848528,-0.848527 c 0.01567,-0.01567 0.02762,-0.03342 0.04135,-0.05012 l 0.180351,0.180351 c 0.439871,0.439869 1.148146,0.439869 1.588017,0 l 4.4974,-4.497917 c 0.439871,-0.43987 0.439871,-1.148147 0,-1.588016 L 17.288067,25.540772 C 17.068132,25.320837 16.781344,25.21056 16.494317,25.21056 Z" />
    <path
       id="path866"
       style="opacity:1;fill:#3d4848;fill-opacity:1;stroke:#1c2121;stroke-width:0.819679;stroke-linecap:round;stroke-linejoin:round;stroke-miterlimit:4;stroke-dasharray:none;stroke-opacity:1"
       d="m 10.95565,31.19056 c 0.05303,0.164034 0.1318,0.320937 0.262516,0.451654 l 0.211356,0.211355 c -0.01677,0.01365 -0.03396,0.02618 -0.04963,0.04185 l -0.848526,0.848527 c -0.235094,0.235093 -0.248769,0.600273 -0.03049,0.818554 0.218279,0.218279 0.583462,0.204603 0.818555,-0.03049 l 0.848527,-0.848527 c 0.01567,-0.01567 0.02762,-0.03342 0.04135,-0.05012 l 0.18035,0.18035 c 0.43987,0.43987 1.148146,0.43987 1.588016,0 l 3.323312,-3.323312 z" />
  </g>
</svg>
